<!-- c:\xampp\tomcat\webapps\cartographie_web_region_kaolack\images\icon.svg -->
<svg width="512" height="512" viewBox="0 0 512 512" xmlns="http://www.w3.org/2000/svg">
  <defs>
    <linearGradient id="grad" x1="0%" y1="0%" x2="100%" y2="100%">
      <stop offset="0%" style="stop-color:#0d6efd;stop-opacity:1" />
      <stop offset="100%" style="stop-color:#003366;stop-opacity:1" />
    </linearGradient>
    <filter id="shadow" x="-20%" y="-20%" width="140%" height="140%">
      <feDropShadow dx="2" dy="4" stdDeviation="4" flood-opacity="0.3"/>
    </filter>
  </defs>
  <path d="M256 32 C150 32 64 118 64 224 C64 340 256 480 256 480 C256 480 448 340 448 224 C448 118 362 32 256 32 Z" fill="url(#grad)" filter="url(#shadow)"/>
  <circle cx="256" cy="224" r="115" fill="white"/>
  <g transform="translate(0, -10)">
    <path d="M256 154 L186 189 L256 224 L326 189 Z" fill="#ffc107"/>
    <path d="M186 209 L170 217 L256 260 L342 217 L326 209 L256 244 Z" fill="#0d6efd"/>
    <path d="M186 249 L170 257 L256 300 L342 257 L326 249 L256 284 Z" fill="#198754"/>
  </g>
</svg>
